<svg width="14" height="14" viewBox="0 0 14 14" fill="none" xmlns="http://www.w3.org/2000/svg">
    <g clip-path="url(#clip0_392_12860)">
        <g clip-path="url(#clip1_392_12860)">
            <path fill-rule="evenodd" clip-rule="evenodd"
                d="M1.75 1C1.88807 1 2 1.11193 2 1.25V10.75C2 10.8881 1.88807 11 1.75 11H1.25C1.11193 11 1 10.8881 1 10.75V1.25C1 1.11193 1.11193 1 1.25 1H1.75ZM10.75 1C10.8881 1 11 1.11193 11 1.25V10.75C11 10.8881 10.8881 11 10.75 11H10.25C10.1119 11 10 10.8881 10 10.75V1.25C10 1.11193 10.1119 1 10.25 1H10.75ZM6 2.5C7.65685 2.5 9 3.84315 9 5.5C9 7.15685 7.65685 8.5 6 8.5H5.49995L5.5 9.51142C5.5 9.58067 5.47946 9.64809 5.44138 9.70532L5.42089 9.73305C5.30613 9.8733 5.10515 9.90145 4.95721 9.80356L4.92837 9.7823L3.08108 8.27088C3.06307 8.25615 3.04657 8.23965 3.03183 8.22163C2.91708 8.08138 2.92928 7.87881 3.05453 7.75317L3.08108 7.72912L4.92837 6.2177C4.9909 6.16654 5.06921 6.13858 5.15 6.13858C5.33193 6.13858 5.48144 6.27739 5.4984 6.45488L5.5 6.48858L5.49995 7.5H6C7.10457 7.5 8 6.60457 8 5.5C8 4.39543 7.10457 3.5 6 3.5H3.75C3.61193 3.5 3.5 3.38807 3.5 3.25V2.75C3.5 2.61193 3.61193 2.5 3.75 2.5H6Z"
                fill="#42464E" />
        </g>
    </g>
    <defs>
        <clipPath id="clip0_392_12860">
            <rect width="14" height="14" fill="white" />
        </clipPath>
        <clipPath id="clip1_392_12860">
            <rect width="14" height="14" fill="white" />
        </clipPath>
    </defs>
</svg>
